<?xml version="1.0" encoding="utf-8"?><svg viewBox="0 0 161 112" xmlns="http://www.w3.org/2000/svg" xmlns:xlink="http://www.w3.org/1999/xlink"><style>:root>svg{display:none}:root>svg:target{display:block}</style><svg fill="none" viewBox="0 0 32 32" id="ar" xmlns="http://www.w3.org/2000/svg"><path d="m14 11 5 5-5 5"/><circle cx="16" cy="16" r="15"/></svg><svg fill="none" viewBox="0 0 7 12" id="arrow" xmlns="http://www.w3.org/2000/svg"><path d="m1 1 5 5-5 5"/></svg><svg fill="none" viewBox="0 0 7 12" id="arrowback" xmlns="http://www.w3.org/2000/svg"><path d="M6 1 1 6l5 5"/></svg><svg fill="none" viewBox="0 0 25 25" id="briefcase" xmlns="http://www.w3.org/2000/svg"><path d="M20.833 7.292H4.166c-1.15 0-2.083.932-2.083 2.083v10.417c0 1.15.933 2.083 2.083 2.083h16.667c1.15 0 2.083-.933 2.083-2.083V9.375c0-1.15-.932-2.083-2.083-2.083Z" stroke="#FF862F" stroke-width="2" stroke-linecap="round" stroke-linejoin="round"/><path d="M16.666 21.875V5.208a2.083 2.083 0 0 0-2.083-2.083h-4.167a2.083 2.083 0 0 0-2.083 2.083v16.667" stroke="#FF862F" stroke-width="2" stroke-linecap="round" stroke-linejoin="round"/></svg><svg fill="none" viewBox="0 0 24 24" id="burger" xmlns="http://www.w3.org/2000/svg"><rect x="4.575" y="2.954" width="24" height="3" rx="1.5" transform="rotate(45 4.575 2.954)" fill="#A65CF0"/><rect x="21.546" y="5.075" width="24" height="3" rx="1.5" transform="rotate(135 21.546 5.075)" fill="#A65CF0"/></svg><svg fill="none" viewBox="0 0 24 24" id="close" xmlns="http://www.w3.org/2000/svg"><path d="m15.6 8.4-7.2 7.2M8.4 8.4l7.2 7.2"/></svg><svg fill="none" viewBox="0 0 12 8" id="down" xmlns="http://www.w3.org/2000/svg"><path fill-rule="evenodd" clip-rule="evenodd" d="M5.657 5.805 10.559.903l.755.754-5.657 5.657L0 1.657.754.903l4.903 4.902Z" fill="#A65CF0"/></svg><svg viewBox="0 0 30 30" id="fb" xmlns="http://www.w3.org/2000/svg"><path d="M15 0C6.75 0 0 6.762 0 15.09 0 22.62 5.49 28.87 12.66 30V19.458H8.85V15.09h3.81v-3.328c0-3.78 2.235-5.858 5.67-5.858 1.635 0 3.345.286 3.345.286v3.72h-1.89c-1.86 0-2.445 1.16-2.445 2.349v2.831h4.17l-.675 4.368H17.34V30a14.985 14.985 0 0 0 9.075-5.105A15.097 15.097 0 0 0 30 15.09C30 6.762 23.25 0 15 0Z"/></svg><svg viewBox="0 0 30 30" id="instagram" xmlns="http://www.w3.org/2000/svg"><path d="M12.129 15a2.871 2.871 0 1 0 5.742 0 2.871 2.871 0 0 0-5.742 0Z"/><path d="M8.286 9.92c.138-.374.358-.713.644-.99.278-.287.616-.507.99-.645.304-.118.76-.258 1.6-.296.908-.042 1.18-.05 3.48-.05s2.573.008 3.48.05c.84.038 1.297.178 1.6.296.374.138.713.358.99.645.286.277.506.616.645.99.118.303.258.76.296 1.6.042.908.05 1.18.05 3.48s-.008 2.572-.05 3.48c-.038.84-.178 1.296-.296 1.6a2.67 2.67 0 0 1-.645.99 2.667 2.667 0 0 1-.99.644c-.303.119-.76.259-1.6.297-.907.041-1.18.05-3.48.05s-2.572-.009-3.48-.05c-.84-.038-1.296-.178-1.6-.297a2.852 2.852 0 0 1-1.634-1.634c-.118-.304-.259-.76-.297-1.6-.041-.908-.05-1.18-.05-3.48s.009-2.572.05-3.48c.038-.84.178-1.297.297-1.6ZM15 19.423a4.423 4.423 0 1 0 0-8.846 4.423 4.423 0 0 0 0 8.846Zm-4.598-7.987a1.034 1.034 0 1 0 0-2.068 1.034 1.034 0 0 0 0 2.068Z"/><path d="M15 0c8.283 0 15 6.717 15 15 0 8.283-6.717 15-15 15-8.283 0-15-6.717-15-15C0 6.717 6.717 0 15 0ZM6.439 18.551c.041.917.187 1.543.4 2.09a4.404 4.404 0 0 0 2.52 2.52c.547.213 1.173.358 2.09.4.918.042 1.212.052 3.55.052 2.34 0 2.633-.01 3.552-.052.917-.042 1.543-.187 2.09-.4a4.22 4.22 0 0 0 1.526-.994c.438-.43.777-.95.994-1.525.213-.548.358-1.174.4-2.09.042-.92.052-1.213.052-3.552 0-2.34-.01-2.633-.052-3.551-.041-.917-.187-1.543-.4-2.09a4.22 4.22 0 0 0-.994-1.526 4.218 4.218 0 0 0-1.525-.994c-.548-.213-1.174-.358-2.09-.4-.92-.042-1.213-.052-3.552-.052-2.34 0-2.633.01-3.551.052-.917.042-1.543.187-2.09.4a4.222 4.222 0 0 0-1.527.994 4.22 4.22 0 0 0-.993 1.525c-.213.548-.359 1.174-.4 2.09-.042.92-.052 1.213-.052 3.552 0 2.34.01 2.633.052 3.551Z"/></svg><svg viewBox="0 0 26 28" id="man" xmlns="http://www.w3.org/2000/svg"><path d="M24.98 22.85a13.17 13.17 0 0 0-2.787-4.203 12.977 12.977 0 0 0-4.131-2.835l-.042-.018a8.752 8.752 0 0 0 3.554-7.07C21.574 3.904 17.737 0 13 0S4.426 3.905 4.426 8.724c0 2.909 1.4 5.487 3.554 7.073-.014.008-.028.011-.042.018a12.864 12.864 0 0 0-4.131 2.835 13.227 13.227 0 0 0-2.787 4.204A13.269 13.269 0 0 0 0 27.712a.286.286 0 0 0 .079.203.276.276 0 0 0 .198.085H2.35a.278.278 0 0 0 .277-.274 10.576 10.576 0 0 1 3.035-7.187c1.96-1.994 4.564-3.092 7.337-3.092 2.773 0 5.376 1.098 7.337 3.092a10.576 10.576 0 0 1 3.035 7.187.276.276 0 0 0 .277.274h2.074a.273.273 0 0 0 .198-.085.282.282 0 0 0 .079-.203 13.302 13.302 0 0 0-1.02-4.862ZM13 14.774c-1.587 0-3.08-.63-4.204-1.773a6.064 6.064 0 0 1-1.743-4.277c0-1.615.62-3.135 1.743-4.278A5.857 5.857 0 0 1 13 2.673c1.587 0 3.08.63 4.204 1.773a6.064 6.064 0 0 1 1.743 4.278A6.064 6.064 0 0 1 17.204 13 5.857 5.857 0 0 1 13 14.774Z"/></svg><svg fill="none" viewBox="0 0 25 25" id="network" xmlns="http://www.w3.org/2000/svg"><path d="M15.625 2.083h-6.25v6.25h6.25v-6.25ZM22.917 16.667h-6.25v6.25h6.25v-6.25ZM8.333 16.667h-6.25v6.25h6.25v-6.25ZM12.5 12.5h7.291v4.167M12.5 8.333V12.5 8.333Zm0 4.167H5.208v4.167L12.5 12.5Z" stroke="#FF862F" stroke-width="2" stroke-linecap="round" stroke-linejoin="round"/></svg><svg viewBox="0 0 18 18" id="phone" xmlns="http://www.w3.org/2000/svg"><path d="M16.343 12.098a10.49 10.49 0 0 1-3.236-.513.896.896 0 0 0-.926.22l-1.44 1.806c-2.593-1.238-5.023-3.575-6.315-6.261l1.787-1.522a.935.935 0 0 0 .22-.935 10.223 10.223 0 0 1-.513-3.236.916.916 0 0 0-.907-.907H1.84C1.346.75.75.97.75 1.657c0 8.516 7.086 15.593 15.593 15.593.65 0 .907-.578.907-1.082v-3.162a.916.916 0 0 0-.907-.908Z"/></svg><svg fill="none" viewBox="0 0 25 25" id="pull" xmlns="http://www.w3.org/2000/svg"><path d="M18.75 21.875a3.125 3.125 0 1 0 0-6.25 3.125 3.125 0 0 0 0 6.25ZM6.25 9.375a3.125 3.125 0 1 0 0-6.25 3.125 3.125 0 0 0 0 6.25ZM13.542 6.25h3.125a2.083 2.083 0 0 1 2.083 2.083v7.292M6.25 9.375v12.5" stroke="#FF862F" stroke-width="2" stroke-linecap="round" stroke-linejoin="round"/></svg><svg viewBox="0 0 16 16" id="search" xmlns="http://www.w3.org/2000/svg"><path d="m15.819 14.063-3.212-2.747a6.968 6.968 0 0 0 1.456-4.285c0-1.88-.734-3.642-2.06-4.97A6.98 6.98 0 0 0 7.03 0a6.99 6.99 0 0 0-4.97 2.06A6.975 6.975 0 0 0 0 7.031c0 1.878.734 3.645 2.06 4.971a6.975 6.975 0 0 0 4.971 2.06c1.57 0 3.061-.51 4.282-1.453l3.212 2.745a.193.193 0 0 0 .272 0l1.022-1.02a.195.195 0 0 0 .056-.136.193.193 0 0 0-.056-.136Zm-5.075-3.32a5.222 5.222 0 0 1-3.713 1.538 5.222 5.222 0 0 1-3.712-1.537A5.222 5.222 0 0 1 1.78 7.03c0-1.401.546-2.72 1.538-3.712A5.222 5.222 0 0 1 7.03 1.78c1.402 0 2.721.544 3.713 1.538A5.222 5.222 0 0 1 12.28 7.03a5.218 5.218 0 0 1-1.537 3.713Z"/></svg><svg viewBox="0 0 41 28" id="shop" xmlns="http://www.w3.org/2000/svg"><path d="M39.816 19.85H19.902l1-2.114 16.613-.03c.562 0 1.044-.417 1.144-.994l2.3-13.366a1.24 1.24 0 0 0-.25-.986 1.177 1.177 0 0 0-.399-.318 1.135 1.135 0 0 0-.49-.116l-21.135-.073-.18-.881C18.39.41 17.901 0 17.346 0H12.18c-.313 0-.613.13-.834.359a1.25 1.25 0 0 0-.346.866c0 .325.124.637.346.867.221.23.521.358.835.358h4.21l.789 3.895 1.943 9.764-2.502 4.238a1.252 1.252 0 0 0-.1 1.277c.2.413.605.673 1.053.673h2.1a3.645 3.645 0 0 0-.688 2.142c0 1.964 1.538 3.561 3.43 3.561 1.894 0 3.432-1.597 3.432-3.561 0-.774-.248-1.527-.689-2.142h5.387a3.645 3.645 0 0 0-.689 2.142c0 1.964 1.539 3.561 3.431 3.561 1.893 0 3.431-1.597 3.431-3.561 0-.774-.247-1.527-.688-2.142h3.788c.65 0 1.181-.548 1.181-1.225a1.253 1.253 0 0 0-.35-.864 1.163 1.163 0 0 0-.834-.358ZM19.176 4.27l19.256.065-1.886 10.961-15.126.028L19.176 4.27Zm3.24 21.266c-.581 0-1.056-.493-1.056-1.097s.475-1.097 1.057-1.097 1.056.493 1.056 1.097c0 .29-.11.57-.309.775a1.037 1.037 0 0 1-.747.322Zm10.872 0c-.581 0-1.056-.493-1.056-1.097s.475-1.097 1.056-1.097c.582 0 1.057.493 1.057 1.097 0 .29-.111.57-.31.775a1.038 1.038 0 0 1-.746.322Z"/><ellipse cx="7" cy="12.5" rx="7" ry="7.5" fill="#FF862F"/><path d="M9.495 12.43c0 1.247-.205 2.17-.615 2.77-.407.598-1.035.898-1.885.898-.823 0-1.445-.31-1.865-.928-.417-.619-.625-1.532-.625-2.74 0-1.26.203-2.187.61-2.783.407-.598 1.034-.898 1.88-.898.824 0 1.445.313 1.865.938.424.625.635 1.54.635 2.744Zm-3.491 0c0 .876.075 1.505.225 1.885.153.378.408.567.766.567.352 0 .606-.192.762-.576.156-.384.234-1.01.234-1.875 0-.876-.08-1.504-.239-1.885-.156-.384-.409-.576-.757-.576-.355 0-.609.192-.762.576-.153.38-.23 1.009-.23 1.885Z" fill="#fff"/></svg><svg fill="none" viewBox="0 0 161 112" id="slon" xmlns="http://www.w3.org/2000/svg"><path opacity=".2" fill-rule="evenodd" clip-rule="evenodd" d="M25.58 100.365c20.257 0 24.074-18.09 24.074-32.575h30.094C126.924 67.79 126.936 0 81.252 0 68.827 0 60.823 7.65 58.681 10.316c-25.49 0-28.587 13.527-28.587 39.791v24.076c0 6.175-2.444 10.182-9.03 10.182-5.623 0-8.286-5.057-10.533-12.153-1.17.638-9.39 5.154-10.531 5.894 2.487 7.09 5.15 22.259 25.58 22.259ZM54.22 39.79c7.717 0 8.373 11.79-.547 11.79-7.519 0-7.323-11.79.546-11.79Zm27.034 35.33c-6.523 0-25.581-1.435-25.581-1.435v36.347l18.056.262 4.514-26.293 57.178-1.091 1.506 28.827 21.065.263S161 55.538 161 44.211c0-21.01-9.255-32.901-30.093-33.895-5.222-.249-12.053-1.238-16.552-1.474 19.611 24.236 4.007 66.278-33.101 66.278Zm36.112 14.737 1.503 21.356 12.038.263-1.505-21.62h-12.036Zm-37.618 20.701 12.037.262 3.008-20.963H84.26l-4.512 20.701Z" fill="#666"/></svg><svg fill="none" viewBox="0 0 16 15" id="star" xmlns="http://www.w3.org/2000/svg"><path d="m15.226 5.282-4.717-.684L8.4.33a.597.597 0 0 0-1.066 0L5.225 4.598.51 5.282a.594.594 0 0 0-.33 1.013l3.413 3.321-.806 4.69a.592.592 0 0 0 .862.625l4.22-2.214 4.218 2.214a.593.593 0 0 0 .862-.625l-.806-4.69 3.413-3.321a.592.592 0 0 0-.33-1.013Z" fill="#FF862F"/></svg><svg viewBox="0 0 14 14" id="tooltip" xmlns="http://www.w3.org/2000/svg"><path fill-rule="evenodd" clip-rule="evenodd" d="M7 1.273a5.727 5.727 0 1 0 0 11.454A5.727 5.727 0 0 0 7 1.273ZM0 7a7 7 0 1 1 14 0A7 7 0 0 1 0 7Zm7.164-2.53a1.273 1.273 0 0 0-1.415.832.636.636 0 1 1-1.201-.422 2.545 2.545 0 0 1 4.947.848c0 .974-.723 1.617-1.238 1.96a5.12 5.12 0 0 1-1.073.54l-.022.008-.007.003h-.003c-.001 0-.002.001-.203-.603l.201.604a.636.636 0 0 1-.403-1.207l.01-.004.048-.017a3.85 3.85 0 0 0 .746-.382c.439-.293.67-.604.67-.903A1.273 1.273 0 0 0 7.165 4.47Zm.472 5.712a.636.636 0 1 1-1.272 0 .636.636 0 0 1 1.272 0Z"/></svg><svg viewBox="0 0 12 7" id="up" xmlns="http://www.w3.org/2000/svg"><path fill-rule="evenodd" clip-rule="evenodd" d="M5.657 1.509.754 6.41 0 5.657 5.657 0l5.657 5.657-.755.754L5.657 1.51Z"/></svg><svg viewBox="0 0 30 30" id="vk" xmlns="http://www.w3.org/2000/svg"><path d="M15 0C6.716 0 0 6.716 0 15c0 8.284 6.716 15 15 15 8.284 0 15-6.716 15-15 0-8.284-6.716-15-15-15Zm7.609 16.622c.699.683 1.439 1.326 2.066 2.08.278.333.54.677.74 1.065.285.553.027 1.159-.467 1.192l-3.073-.001c-.794.066-1.426-.255-1.958-.797-.425-.433-.82-.894-1.229-1.342a2.871 2.871 0 0 0-.553-.492c-.42-.272-.783-.189-1.023.249-.245.445-.3.939-.324 1.434-.033.725-.252.914-.979.948-1.554.073-3.028-.163-4.398-.946-1.208-.69-2.144-1.666-2.959-2.77-1.587-2.152-2.803-4.514-3.895-6.944-.246-.547-.066-.84.538-.85a85.522 85.522 0 0 1 3.009-.002c.408.007.678.24.835.625.542 1.334 1.206 2.603 2.039 3.78.222.313.448.625.77.846.357.245.628.164.796-.233.107-.253.154-.523.177-.794.08-.927.09-1.854-.049-2.777-.086-.578-.41-.951-.987-1.06-.293-.056-.25-.165-.108-.332.248-.29.48-.47.944-.47h3.472c.547.107.67.353.744.904l.003 3.859c-.006.213.107.845.49.985.307.101.51-.145.693-.34.833-.883 1.426-1.926 1.957-3.005.235-.476.437-.969.634-1.462.146-.365.373-.545.785-.539l3.343.004c.099 0 .199.001.296.018.564.097.718.339.544.889-.275.863-.808 1.583-1.329 2.304-.558.772-1.154 1.517-1.707 2.293-.508.709-.468 1.066.163 1.681Z"/></svg></svg>